<?xml version="1.0" standalone="no"?>
<!DOCTYPE svg PUBLIC "-//W3C//DTD SVG 20010904//EN"
 "http://www.w3.org/TR/2001/REC-SVG-20010904/DTD/svg10.dtd">
<svg version="1.0" xmlns="http://www.w3.org/2000/svg"
 width="450.000000pt" height="450.000000pt" viewBox="0 0 450.000000 450.000000"
 preserveAspectRatio="xMidYMid meet">

<g transform="translate(0.000000,450.000000) scale(0.100000,-0.100000)"
fill="#000000" stroke="none">
<path d="M2110 4494 c-341 -23 -701 -133 -985 -298 -602 -352 -996 -936 -1101
-1631 -25 -164 -25 -465 0 -630 113 -754 565 -1375 1240 -1705 215 -105 408
-165 661 -206 154 -26 497 -25 650 0 569 93 1052 362 1397 778 272 327 438
698 505 1128 24 158 24 481 0 639 -40 257 -120 504 -234 721 -335 642 -956
1081 -1673 1184 -108 16 -362 27 -460 20z m1900 -1294 c-14 -5 -387 -114 -830
-241 -796 -230 -806 -232 -915 -236 l-110 -4 -650 186 c-357 103 -740 213
-850 245 l-200 59 1790 -1 c1060 0 1780 -3 1765 -8z m-2851 -660 c380 -250
691 -457 691 -460 0 -4 -1326 -622 -1392 -648 -4 -2 -8 350 -8 783 0 497 4
785 10 783 5 -1 320 -208 699 -458z m2931 -325 l0 -785 -32 13 c-226 96 -1408
632 -1406 638 3 9 1418 918 1431 918 4 1 7 -352 7 -784z m-2610 551 l44 -13
-37 -18 c-44 -21 -81 -62 -98 -110 -7 -19 -17 -35 -21 -35 -9 0 -598 387 -598
393 0 2 150 -43 333 -100 182 -57 352 -109 377 -117z m2246 217 c-4 -5 -141
-96 -304 -205 l-297 -196 -10 31 c-9 31 -82 112 -118 132 -15 8 62 35 355 127
428 133 383 120 374 111z m-1775 -363 c117 -37 150 -43 255 -47 137 -6 212 6
384 61 58 18 106 33 107 32 1 -1 -4 -20 -12 -41 -8 -22 -14 -56 -15 -76 0 -49
45 -135 86 -163 l34 -23 -154 -103 -155 -102 -53 18 c-75 27 -280 27 -359 1
l-57 -19 -150 101 -150 100 48 48 c64 64 79 127 51 209 -13 39 -15 54 -6 50 7
-2 73 -23 146 -46z m1226 -951 c453 -206 823 -377 823 -381 0 -5 -787 -8
-1750 -8 -962 0 -1750 3 -1750 8 0 8 1536 711 1625 744 39 15 70 18 140 15
l90 -4 822 -374z"/>
</g>
</svg>
