<?xml version="1.0" encoding="utf-8"?>
<!-- Generator: Adobe Illustrator 18.1.1, SVG Export Plug-In . SVG Version: 6.00 Build 0)  -->
<!DOCTYPE svg PUBLIC "-//W3C//DTD SVG 1.1//EN" "http://www.w3.org/Graphics/SVG/1.1/DTD/svg11.dtd">
<svg version="1.1" id="Layer_1" xmlns="http://www.w3.org/2000/svg" xmlns:xlink="http://www.w3.org/1999/xlink" x="0px" y="0px"
	 viewBox="0 0 792 612" enable-background="new 0 0 792 612" xml:space="preserve">
<rect x="41.3" y="204.2" fill="#010000" width="705.4" height="184.5"/>
<g>
	<g>
		<path fill="#FFFFFF" d="M236.9,318.8v-53.6h10.7v53.6H236.9z"/>
		<path fill="#FFFFFF" d="M284.6,318.8V297c0-7.2-2.5-9.3-6.8-9.3c-4.4,0-6.9,2.1-6.9,9.1v22h-10.6v-40.2h10.6v2.7
			c1.8-1.9,5.2-3.5,9.4-3.5c10.3,0,14.9,7,14.9,18.4v22.7h-10.6V318.8z"/>
		<path fill="#FFFFFF" d="M325.2,318.8h-10.9l-14.5-40.2h11.6l5.9,18.6c1,3.1,2.1,6.9,2.5,8.8c0.5-2,1.5-5.7,2.5-8.8l5.9-18.6h11.3
			L325.2,318.8z"/>
		<path fill="#FFFFFF" d="M361.5,319.6c-10.5,0-18.1-8.6-18.1-20.9s7.7-21,18.1-21s18.2,8.7,18.2,21S372,319.6,361.5,319.6z
			 M361.5,287.9c-5.1,0-7.4,4.6-7.4,10.8c0,6.2,2.4,10.7,7.4,10.7s7.5-5.1,7.5-10.7C369,292.6,366.6,287.9,361.5,287.9z"/>
		<path fill="#FFFFFF" d="M393.6,275.3c-3.3,0-6-2.8-6-6s2.8-6,6-6s6,2.8,6,6S396.9,275.3,393.6,275.3z M388.3,318.8v-40.2h10.6
			v40.2H388.3z"/>
		<path fill="#FFFFFF" d="M426.3,319.6c-10.5,0-18.8-8.6-18.8-20.9s8.1-21,19.3-21c7.7,0,12.6,3.8,15.9,8.9l-7,7
			c-2.4-3.4-4.9-5.7-9.2-5.7c-5.1,0-8.3,4.2-8.3,10.8c0,6.4,3.3,10.7,8.3,10.7c4.1,0,6.7-1.8,9.5-5.1l6.7,6.4
			C438.8,315.8,434.2,319.6,426.3,319.6z"/>
		<path fill="#FFFFFF" d="M482.3,302.1h-24c0.4,5.5,4.4,7.6,8.3,7.6c2.9,0,5.4-1.1,6.9-2.8l7.5,6.3c-3.2,4.1-9,6.5-14.4,6.5
			c-11.6,0-18.9-8.2-18.9-20.9c0-12.3,7.7-21,17.9-21c10.7,0,16.9,9.5,16.9,21C482.5,300.2,482.4,301.3,482.3,302.1z M465,286.9
			c-3.8,0-6.2,3.1-6.6,7.2h13.8C471.9,290.5,469.8,286.9,465,286.9z"/>
	</g>
	<g>
		<path fill="#FFFFFF" d="M529.3,318.8l-23.4-36.7c-1.1-1.8-3.1-5.4-3.8-6.7v3.7v39.7h-5.7v-53.6h5.8l23.2,37.4
			c1.1,1.8,3.1,5.4,3.8,6.7v-3.7v-40.4h5.7v53.6H529.3z"/>
		<path fill="#FFFFFF" d="M551.6,271.4c-2.4,0-4.2-1.8-4.2-4.1c0-2.3,1.8-4.1,4.2-4.1c2.1,0,4,1.8,4,4.1
			C555.6,269.5,553.8,271.4,551.6,271.4z M548.6,318.8v-40.2h5.7v40.2H548.6z"/>
		<path fill="#FFFFFF" d="M592.7,318.8v-23.5c0-8.7-3.1-12.6-9.5-12.6c-5.6,0-10,3.8-10,12.6v23.5h-5.7v-40.2h5.7v4.9
			c2.3-3.4,6-5.7,11.1-5.7c8.5,0,14.1,5,14.1,16.5v24.5L592.7,318.8L592.7,318.8z"/>
		<path fill="#FFFFFF" d="M605.1,333.5l-1.9-4.3c7.3-2.2,8-4.1,8-11.5v-39.2h5.7v39.3C617,327,615.2,331,605.1,333.5z M614.2,271.4
			c-2.4,0-4.2-1.8-4.2-4.1c0-2.3,1.8-4.1,4.2-4.1c2.1,0,4,1.8,4,4.1C618.2,269.5,616.4,271.4,614.2,271.4z"/>
		<path fill="#FFFFFF" d="M653.1,318.8v-4.9c-2.8,3.1-6.8,5.7-12.6,5.7c-6.3,0-12.9-3.1-12.9-12.9c0-9,7.4-12.9,15.4-12.9
			c4.1,0,7.7,1,10,2.3v-4.7c0-6-2.8-8.9-8.7-8.9c-4.2,0-7.7,1.1-10.9,3.1l-2.1-4.7c3.5-1.9,8.3-3.2,13.5-3.2c8.7,0,14.1,3.7,14.1,13
			v28h-5.8V318.8z M653.1,300.8c-2.6-1.5-5.4-2.3-10.3-2.3c-5.9,0-9.4,2.8-9.4,7.9c0,6,3.3,8.6,8.2,8.6c5.2,0,9.1-2.7,11.6-6
			L653.1,300.8L653.1,300.8z"/>
	</g>
	<g>
		<path fill="#FFFFFF" d="M138.4,280.9l3.6,2.3c0.3-2.1,1.9-3.8,4.1-4.6l-21.1-6.4L138.4,280.9z"/>
		<polygon fill="#FFFFFF" points="116.5,271.8 155.4,296.7 116.5,314.1 		"/>
		<path fill="#FFFFFF" d="M194,280.9l-3.6,2.3c-0.3-2.1-1.9-3.8-4.1-4.6l21.1-6.4L194,280.9z"/>
		<path fill="#FFFFFF" d="M177.9,284c0-1.2,0.4-2.2,1-3.2l-6.4,1.9c-0.6,0.2-1.2,0.3-1.7,0.4c-0.2,0-0.3,0.1-0.5,0.1
			c-0.4,0.1-0.8,0.1-1.2,0.2c-0.3,0-0.6,0.1-1,0.1c-0.2,0-0.4,0-0.6,0c-0.5,0-0.9,0-1.4,0c-0.4,0-0.9,0-1.4,0c-0.2,0-0.3,0-0.5,0
			c-0.3,0-0.7,0-1.1-0.1c-0.4,0-0.7-0.1-1.1-0.2c-0.2,0-0.4-0.1-0.6-0.1c-0.6-0.1-1.2-0.2-1.7-0.4l-6.4-1.9c0.7,0.9,1,2,1,3.2
			c0,2.2-1.4,4.1-3.3,5.1l8.6,5.5c1-0.4,1.9-0.7,2.9-0.9c1.2-0.2,2.4-0.3,3.3-0.3c0.1,0,0.1,0,0.2,0l0,0c0,0,0,0,0.1,0
			c0,0,0,0,0.1,0l0,0c0.1,0,0.2,0,0.2,0c0.9,0,2,0.1,3.3,0.3c0.9,0.2,1.9,0.4,2.9,0.9l8.6-5.5C179.2,288.1,177.9,286.2,177.9,284z"
			/>
		<polygon fill="#FFFFFF" points="217.2,314.1 177,296.7 217.2,271.8 		"/>
		<path fill="#FFFFFF" d="M197.7,310.3c-2.1-0.9-5.5-2.4-7.5-3.3l-19.5-8.6l-0.4-0.2c-1.1-0.5-2.5-0.7-4-0.7l0,0c0,0,0,0-0.1,0
			c0,0,0,0-0.1,0l0,0c-1.4,0-2.9,0.2-4,0.7l-0.4,0.2l-19.5,8.6c-2.1,0.9-5.5,2.4-7.5,3.3l-17.1,7.5c0.5,0.2,1,0.3,1.5,0.3h47.1h0.1
			h47.1c0.5,0,1-0.1,1.5-0.3L197.7,310.3z"/>
		<path fill="#FFFFFF" d="M166.3,266.4h-0.1h-49.7l16.4,4.6c2.3,0.6,6,1.7,8.2,2.3l21.1,5.9c1.1,0.3,2.5,0.5,4,0.5l0,0
			c0,0,0,0,0.1,0c0,0,0,0,0.1,0l0,0c1.4,0,2.9-0.2,4-0.5l21.1-5.9c2.3-0.6,6-1.7,8.2-2.3l16.4-4.6H166.3z"/>
	</g>
</g>
</svg>
