<svg width="1450" height="1450" viewBox="0 0 1450 1450" fill="none" xmlns="http://www.w3.org/2000/svg">
<g clip-path="url(#clip0_1_2)">
<circle cx="725" cy="725" r="725" fill="white"/>
<path d="M981.59 623.863C981.59 642.514 974.18 660.401 960.992 673.59C947.803 686.778 929.916 694.188 911.265 694.188C892.613 694.188 874.726 686.778 861.537 673.59C848.349 660.401 840.94 642.514 840.94 623.863C840.94 605.211 848.349 587.324 861.537 574.135C874.726 560.947 892.613 553.538 911.265 553.538C929.916 553.538 947.803 560.947 960.992 574.135C974.18 587.324 981.59 605.211 981.59 623.863ZM601.69 623.863C601.69 633.102 599.87 642.25 596.334 650.786C592.798 659.322 587.616 667.078 581.083 673.611C574.55 680.144 566.794 685.327 558.258 688.862C549.722 692.398 540.574 694.218 531.334 694.218C522.095 694.218 512.947 692.398 504.411 688.862C495.875 685.327 488.119 680.144 481.586 673.611C475.053 667.078 469.87 659.322 466.335 650.786C462.799 642.25 460.979 633.102 460.979 623.863C460.979 605.203 468.392 587.308 481.586 574.114C494.78 560.92 512.675 553.507 531.334 553.507C549.994 553.507 567.889 560.92 581.083 574.114C594.277 587.308 601.69 605.203 601.69 623.863ZM593.231 1440.7C308.548 1381.49 96.1833 1183.5 20.3604 906.492C-5.07498 813.631 -5.07498 635.221 20.3604 542.36C90.9875 284.502 285.771 89.7188 543.569 19.0917C636.49 -6.34372 814.84 -6.34372 907.76 19.0917C1165.56 89.7188 1360.4 284.502 1430.97 542.3C1445.47 595.104 1448.73 628.696 1448.73 724.396C1448.73 820.096 1445.47 853.688 1431.03 906.492C1360.34 1164.53 1162.84 1361.79 907.76 1429.1C823.721 1451.27 671.169 1456.89 593.231 1440.7ZM994.398 877.915C810.308 796.473 749.469 772.971 722.523 772.971C695.577 772.971 635.946 795.929 457.898 874.713C331.567 930.658 226.623 981.046 224.69 982.858H1231.41L994.398 877.915ZM397.904 856.104C495.84 812.06 582.779 772.306 590.996 767.654C606.583 758.894 611.356 762.217 271.694 545.2C237.86 523.571 209.887 503.029 209.767 505.929V940.325C272.54 912.387 335.252 884.313 397.904 856.104ZM1248.45 723.55V508.527C1248.45 501.881 1147.19 568.521 1037.23 636.61C855.983 748.623 839.006 761.069 855.742 768.621C937.002 805.535 1243.62 941.533 1248.45 942.138V723.55ZM754.906 730.196C787.833 737.748 793.754 736.479 828.977 714.306C850.062 701.015 868.55 688.992 870.121 687.602C871.692 686.152 867.1 676.667 860.031 666.456C852.902 656.306 847.042 636.248 847.042 621.808V595.708L812.665 608.396C768.802 624.527 674.915 624.708 631.415 608.698L597.823 596.313L598.608 623.621C599.031 639.329 593.292 657.635 585.015 666.819C570.998 682.285 571.723 683.494 612.202 710.681C650.869 736.781 656.004 738.171 686.515 730.438C708.961 724.823 732.44 724.781 754.906 730.317V730.196ZM499.344 570.092C493 563.265 319.906 512.454 316.1 516.26C314.287 518.073 346.55 541.273 387.754 567.856L462.671 616.19L483.213 595.406C494.45 584.048 501.76 572.629 499.404 570.031L499.344 570.092ZM1089.01 547.556C1117.59 529.069 1137.34 514.025 1132.99 514.025C1123.63 514.025 959.175 562.6 950.112 568.038C946.669 570.092 952.106 581.873 962.196 594.198L980.562 616.552L1008.96 598.85C1024.49 589.063 1060.55 565.983 1089.07 547.496L1089.01 547.556ZM990.169 514.025C1117.65 478.379 1223.8 447.446 1226.04 445.21H216.896C228.194 456.508 686.877 577.825 719.744 578.248C744.515 578.55 841.423 555.531 990.169 514.025Z" fill="black"/>
</g>
<defs>
<clipPath id="clip0_1_2">
<rect width="1450" height="1450" fill="white"/>
</clipPath>
</defs>
</svg>
